<?xml version="1.0" encoding="utf-8"?>
<!-- Generator: Adobe Illustrator 24.0.1, SVG Export Plug-In . SVG Version: 6.00 Build 0)  -->
<svg version="1.1" id="ny" xmlns="http://www.w3.org/2000/svg" xmlns:xlink="http://www.w3.org/1999/xlink" x="0px" y="0px"
	 viewBox="0 0 657.28 229.16" style="enable-background:new 0 0 657.28 229.16;" xml:space="preserve">
<style type="text/css">
	.st0{fill:#DF475C;}
	.st1{fill:#FFFFFF;}
</style>
<path class="st0" d="M656.69,40.54c0-1.05-0.85-2.08-2.08-2.08l-43.15,0c-1.15,0-2.07,0.93-2.07,2.07v10.54
	c0,1.15,0.93,2.07,2.07,2.07H642v30.45c0,1.15,0.93,2.07,2.07,2.07h10.54c1.15,0,2.07-0.93,2.07-2.07L656.69,40.54z"/>
<g>
	<g>
		<path class="st1" d="M67.09,66.62v41.18c0,1.15-0.93,2.07-2.07,2.07H54.47c-1.15,0-2.07-0.93-2.07-2.07V69.74
			c0-11.8-6.45-18.62-17.51-18.62c-10.83,0-19.66,6.83-19.66,18.62v38.06c0,1.15-0.93,2.07-2.07,2.07H2.62
			c-1.15,0-2.07-0.93-2.07-2.07V40.73c0-1.15,0.93-2.07,2.07-2.07h6.75c1.86,0,3.5,1.21,4.06,2.98l1.88,6
			c2.37-3.64,9.13-10.46,21.89-10.46C56.78,37.17,67.09,49.34,67.09,66.62z"/>
		<path class="st1" d="M187.1,48.37c4-7.79,10.76-11.2,18.55-11.2c3.47,0,6.42,0.69,8.15,1.21c0.96,0.29,1.57,1.23,1.46,2.22
			l-1.08,9.31c-0.14,1.25-1.37,2.1-2.59,1.76c-1.54-0.43-3.72-0.86-6.39-0.86c-7.86,0-18.1,4.15-18.1,20.25v36.73
			c0,1.15-0.93,2.07-2.07,2.07h-10.62c-1.15,0-2.07-0.93-2.07-2.07V40.73c0-1.15,0.93-2.07,2.07-2.07h6.68
			c1.89,0,3.56,1.25,4.08,3.07L187.1,48.37z"/>
		<path class="st1" d="M228.53,107.8c-2.06-1.33-4.67-4.23-4.67-8.98c0-5.27,3.63-9.35,8.09-12.76
			c-7.79-4.6-12.47-12.46-12.47-22.18c0-15.88,12.54-26.71,30.79-26.71c3.12,0,6.45,0.52,9.72,1.48h24.88
			c1.15,0,2.07,0.93,2.07,2.07v5.61c0,0.95-0.64,1.77-1.55,2.01l-8.71,2.69c2.67,3.93,4.38,8.75,4.38,12.84
			c0,15.87-12.54,26.71-30.79,26.71c-3.04,0-5.94-0.3-8.68-0.89c-2.6,2.3-4.08,4.15-4.08,6.01c0,2.6,2.52,4,5.94,4h21
			c12,0,23.54,4.87,24.75,17.9c0.11,1.23-0.84,2.31-2.08,2.31l-10.76-0.02c-0.98,0-1.78-0.71-2.02-1.66
			c-0.89-3.63-4.78-5.84-10.49-5.84h-19.23C235.35,112.4,230.59,109.12,228.53,107.8z M250.27,78.57c10.68,0,16.69-6.01,16.69-14.69
			c0-8.68-6.01-14.69-16.69-14.69s-16.69,6.01-16.69,14.69C233.57,72.56,239.58,78.57,250.27,78.57z"/>
		<path class="st1" d="M296.59,73.89c0-21.88,15.51-36.72,35.76-36.72c12.09,0,20.1,4.45,25.37,11.2l1.93-6.65
			c0.53-1.82,2.19-3.07,4.08-3.07h6.6c1.15,0,2.07,0.93,2.07,2.07v67.07c0,1.15-0.93,2.07-2.07,2.07h-8.24
			c-0.92,0-1.74-0.61-1.99-1.5l-2.38-8.22c-5.27,6.75-13.28,11.2-25.37,11.2C312.1,111.36,296.59,95.78,296.59,73.89z M334.13,50.38
			c-13.72,0-22.85,10.39-22.85,23.52c0,13.13,9.13,24.26,22.85,24.26c13.73,0,23.52-11.13,23.52-24.26
			C357.65,60.76,347.78,50.38,334.13,50.38z M335.43,0c9.12,0,15.28,6.01,15.28,14.69c0,8.53-6.16,14.47-15.28,14.47
			c-9.13,0-15.28-5.94-15.28-14.47C320.15,6.01,326.31,0,335.43,0z M336.14,20.77c3.78,0,6.31-2.45,6.31-6.01
			c0-3.86-2.52-6.46-6.31-6.46c-3.86,0-6.38,2.6-6.38,6.46C329.76,18.33,332.28,20.77,336.14,20.77z"/>
		<path class="st1" d="M408.45,48.37c4.01-7.79,10.76-11.2,18.55-11.2c3.47,0,6.42,0.69,8.15,1.21c0.96,0.29,1.57,1.23,1.46,2.22
			l-1.07,9.31c-0.14,1.25-1.37,2.1-2.59,1.77c-1.54-0.43-3.72-0.86-6.39-0.86c-7.86,0-18.1,4.15-18.1,20.25v36.73
			c0,1.15-0.93,2.07-2.07,2.07h-10.61c-1.15,0-2.07-0.93-2.07-2.07V40.73c0-1.15,0.93-2.07,2.07-2.07h6.68
			c1.89,0,3.56,1.25,4.08,3.07L408.45,48.37z"/>
		<path class="st1" d="M439.35,73.89c0-21.88,15.5-36.72,35.76-36.72c12.09,0,20.1,4.45,25.37,11.2V11.24
			c0-1.15,0.93-2.07,2.07-2.07h10.54c1.15,0,2.07,0.93,2.07,2.07v96.56c0,1.15-0.93,2.07-2.07,2.07h-8.24
			c-0.92,0-1.74-0.61-1.99-1.5l-2.38-8.22c-5.27,6.75-13.28,11.2-25.37,11.2C454.86,111.36,439.35,95.78,439.35,73.89z
			 M476.89,50.38c-13.73,0-22.85,10.39-22.85,23.52c0,13.13,9.12,24.26,22.85,24.26c13.73,0,23.52-11.13,23.52-24.26
			C500.41,60.76,490.54,50.38,476.89,50.38z"/>
	</g>
	<path class="st1" d="M61.72,168.25c4.3-6.97,13.2-13.28,25.45-13.28c18.99,0,29.23,12.17,29.23,29.45v41.18
		c0,1.15-0.93,2.07-2.07,2.07h-10.62c-1.15,0-2.07-0.93-2.07-2.07v-38.06c0-11.8-6.31-18.62-16.77-18.62
		c-10.39,0-18.92,6.53-19.29,17.73v38.95c0,1.15-0.93,2.07-2.07,2.07H52.89c-1.15,0-2.07-0.93-2.07-2.07v-38.06
		c0-11.8-6.31-18.62-16.77-18.62c-10.61,0-19.29,6.83-19.29,18.62v38.06c0,1.15-0.93,2.07-2.07,2.07H2.07
		c-1.15,0-2.07-0.93-2.07-2.07v-67.07c0-1.15,0.93-2.07,2.07-2.07h6.75c1.86,0,3.5,1.21,4.06,2.98l1.88,6
		c2.3-3.64,9.05-10.46,21.59-10.46C48.59,154.97,57.2,160.02,61.72,168.25z"/>
	<path class="st1" d="M134.18,134.77c0-5.34,3.71-9.05,9.05-9.05c5.34,0,9.13,3.71,9.13,9.05c0,5.34-3.78,9.05-9.13,9.05
		C137.89,143.82,134.18,140.11,134.18,134.77z M135.89,225.6v-67.07c0-1.15,0.93-2.07,2.07-2.07h10.54c1.15,0,2.07,0.93,2.07,2.07
		v67.07c0,1.15-0.93,2.07-2.07,2.07h-10.54C136.82,227.68,135.89,226.75,135.89,225.6z"/>
	<path class="st1" d="M414.65,227.68h-10.54c-1.15,0-2.07-0.93-2.07-2.07v-96.56c0-1.15,0.93-2.07,2.07-2.07h10.54
		c1.15,0,2.07,0.93,2.07,2.07v96.56C416.72,226.75,415.79,227.68,414.65,227.68z"/>
	<path class="st1" d="M468.74,186.43c14.47,2.97,22.18,9.05,22.18,21.44c0,14.39-11.72,21.29-29.01,21.29
		c-10.09,0-19.53-1.74-25.76-4.67c-0.8-0.38-1.24-1.26-1.12-2.14l1.21-8.58c0.18-1.3,1.52-2.13,2.75-1.66
		c6.82,2.6,14.86,4.14,21.95,4.14c10.68,0,15.65-2.67,15.65-8.16c0-4.82-3.86-7.42-13.06-9.27l-10.53-2.15
		c-12.54-2.52-19.21-9.72-19.21-20.7c0-12.09,11.87-21,29.68-21c8.06,0,16.57,1.45,22.5,3.71c0.88,0.33,1.39,1.24,1.27,2.17
		l-1.04,8.54c-0.16,1.32-1.49,2.14-2.75,1.7c-5.58-1.97-12.8-3.2-19.24-3.2c-10.76,0-16.1,3.04-16.1,8.31
		c0,4.45,3.34,6.68,12.32,8.53L468.74,186.43z"/>
	<path class="st1" d="M657.28,184.43v41.18c0,1.15-0.93,2.07-2.07,2.07h-10.54c-1.15,0-2.07-0.93-2.07-2.07v-38.06
		c0-11.8-6.46-18.62-17.51-18.62c-10.83,0-19.66,6.83-19.66,18.62v38.06c0,1.15-0.93,2.07-2.07,2.07H592.8
		c-1.15,0-2.07-0.93-2.07-2.07v-67.07c0-1.15,0.93-2.07,2.07-2.07h6.75c1.86,0,3.5,1.21,4.06,2.98l1.88,6
		c2.37-3.64,9.13-10.46,21.88-10.46C646.97,154.97,657.28,167.14,657.28,184.43z"/>
	<path class="st1" d="M292.45,158.03l-22.22,27.8h-7.43v-56.79c0-1.15-0.93-2.07-2.07-2.07h-10.54c-1.15,0-2.07,0.93-2.07,2.07
		v96.56c0,1.15,0.93,2.07,2.07,2.07h10.54c1.15,0,2.07-0.93,2.07-2.07v-28.16h8.34l24.59,28.75c0.81,0.94,1.99,1.49,3.23,1.49
		l10.89,0c1.69,0,2.67-1.92,1.68-3.29l-28.24-33.43l24.59-31.28c0.91-1.38-0.08-3.21-1.73-3.21l-10.39-0.03
		C294.48,156.42,293.26,157.01,292.45,158.03z"/>
	<path class="st1" d="M216.73,158.03l-22.22,27.8h-7.43v-56.79c0-1.15-0.93-2.07-2.07-2.07h-10.54c-1.15,0-2.07,0.93-2.07,2.07
		v96.56c0,1.15,0.93,2.07,2.07,2.07h10.54c1.15,0,2.07-0.93,2.07-2.07v-28.16h8.34l24.59,28.75c0.81,0.94,1.99,1.49,3.23,1.49
		l10.89,0c1.69,0,2.67-1.92,1.68-3.29l-28.24-33.43l24.59-31.28c0.91-1.38-0.08-3.21-1.73-3.21l-10.39-0.03
		C218.77,156.42,217.54,157.01,216.73,158.03z"/>
	<path class="st1" d="M381.18,220.72c0.15,0.88-0.28,1.77-1.06,2.19c-7.87,4.19-16.43,6.26-25.84,6.26
		c-23.96,0-40.51-15.14-40.51-37.1c0-21.22,15.36-37.1,36.65-37.1c23.15,0,38.06,19.29,33.83,42.44h-55.42
		c2.6,11.65,11.65,18.1,25.45,18.1c7.58,0,12.6-1.08,20.91-4.85c1.35-0.61,2.53,0.06,3,1.5L381.18,220.72z M370.97,185.69
		c-0.96-10.31-8.38-17.28-20.1-17.28s-20.48,6.97-21.59,17.28H370.97z"/>
	<path class="st1" d="M569.92,220.72c0.15,0.88-0.28,1.77-1.06,2.19c-7.87,4.19-16.43,6.26-25.84,6.26
		c-23.96,0-40.51-15.14-40.51-37.1c0-21.22,15.36-37.1,36.65-37.1c23.15,0,38.06,19.29,33.83,42.44h-55.42
		c2.6,11.65,11.65,18.1,25.45,18.1c7.58,0,12.6-1.08,20.91-4.85c1.35-0.61,2.53,0.06,3,1.5L569.92,220.72z M559.7,185.69
		c-0.96-10.31-8.38-17.28-20.1-17.28s-20.48,6.97-21.59,17.28H559.7z"/>
	<path class="st1" d="M146.45,47.55l6.49-8.09c0.54-0.67,0.43-1.65-0.24-2.19l-3.98-3.2c-0.67-0.54-1.65-0.43-2.19,0.24l-6.6,8.23
		c-5.77-3.47-12.67-5.46-20.24-5.46c-21.66,0-37.84,16.25-37.84,37.1c0,10.64,4.22,20.07,11.22,26.76l-6.7,8.35
		c-0.54,0.67-0.43,1.65,0.24,2.19l3.98,3.2c0.67,0.54,1.65,0.43,2.19-0.24l6.83-8.52c5.74,3.41,12.57,5.35,20.07,5.35
		c21.66,0,37.84-16.25,37.84-37.09C157.52,63.61,153.36,54.24,146.45,47.55z M96.54,74.18c0-13.13,9.72-23.3,23.15-23.3
		c4.2,0,8.04,0.99,11.33,2.76L102.1,89.68C98.59,85.6,96.54,80.2,96.54,74.18z M119.69,97.47c-4.12,0-7.9-0.96-11.15-2.67
		l28.86-35.97c3.43,4.06,5.43,9.4,5.43,15.35C142.83,87.31,133.11,97.47,119.69,97.47z"/>
</g>
</svg>
